# xmcd
#
# Track frame offsets: 
#        150
#        14843
#        34698
#        46798
#        82268
#        90618
#        116141
#        129378
#        138986
#
# Disc length: 2243 seconds
#
# Revision: 0
# Processed by: cddbd v1.5.2PL0 Copyright (c) Steve Scherf et al.
# Submitted via: ExactAudioCopy v0.99pb4
#
DISCID=7708c109
DTITLE=Various Artist - Nova Le Grand Mix [CD13)
DYEAR=2008
DGENRE=
TTITLE0=The Three Sounds - Book Of Slim
TTITLE1=Cornishwaters feat Duchess - Walking
TTITLE2=Keith and Tex - This Is My Song
TTITLE3=Femi Kuti - Truth Don Die (Kerry Chandler Mix)
TTITLE4=Galt MacDermot - Space
TTITLE5=Dexter Wansel - The Sweetest Pain
TTITLE6=Jimmy Forest - Night Train
TTITLE7=Noro Morales Y Su Orchestra - Istanbul
TTITLE8=Savoy Brown - Life's One Act Play
EXTD=
EXTT0=
EXTT1=
EXTT2=
EXTT3=
EXTT4=
EXTT5=
EXTT6=
EXTT7=
EXTT8=
PLAYORDER=
